<?xml version="1.0" standalone="no"?>
<!DOCTYPE svg PUBLIC "-//W3C//DTD SVG 1.1//EN" "http://www.w3.org/Graphics/SVG/1.1/DTD/svg11.dtd">
<svg viewBox="0 0 755.000000 574.000000" version="1.1" xmlns="http://www.w3.org/2000/svg" xmlns:xlink="http://www.w3.org/1999/xlink">
	<polyline fill="none" stroke="rgb(229,229,229)" stroke-width="1" stroke-opacity="1" points="68.000000,48.000000 68.000000,524.000000"/>
	<polyline fill="none" stroke="rgb(229,229,229)" stroke-width="1" stroke-opacity="1" points="101.100000,48.000000 101.100000,524.000000"/>
	<polyline fill="none" stroke="rgb(229,229,229)" stroke-width="1" stroke-opacity="1" points="134.200000,48.000000 134.200000,524.000000"/>
	<polyline fill="none" stroke="rgb(229,229,229)" stroke-width="1" stroke-opacity="1" points="167.300000,48.000000 167.300000,524.000000"/>
	<polyline fill="none" stroke="rgb(229,229,229)" stroke-width="1" stroke-opacity="1" points="200.400000,48.000000 200.400000,524.000000"/>
	<polyline fill="none" stroke="rgb(229,229,229)" stroke-width="1" stroke-opacity="1" points="233.500000,48.000000 233.500000,524.000000"/>
	<polyline fill="none" stroke="rgb(229,229,229)" stroke-width="1" stroke-opacity="1" points="266.600000,48.000000 266.600000,524.000000"/>
	<polyline fill="none" stroke="rgb(229,229,229)" stroke-width="1" stroke-opacity="1" points="299.700000,48.000000 299.700000,524.000000"/>
	<polyline fill="none" stroke="rgb(229,229,229)" stroke-width="1" stroke-opacity="1" points="332.800000,48.000000 332.800000,524.000000"/>
	<polyline fill="none" stroke="rgb(229,229,229)" stroke-width="1" stroke-opacity="1" points="365.900000,48.000000 365.900000,524.000000"/>
	<polyline fill="none" stroke="rgb(229,229,229)" stroke-width="1" stroke-opacity="1" points="399.000000,48.000000 399.000000,524.000000"/>
	<polyline fill="none" stroke="rgb(229,229,229)" stroke-width="1" stroke-opacity="1" points="432.100000,48.000000 432.100000,524.000000"/>
	<polyline fill="none" stroke="rgb(229,229,229)" stroke-width="1" stroke-opacity="1" points="465.200000,48.000000 465.200000,524.000000"/>
	<polyline fill="none" stroke="rgb(229,229,229)" stroke-width="1" stroke-opacity="1" points="498.300000,48.000000 498.300000,524.000000"/>
	<polyline fill="none" stroke="rgb(229,229,229)" stroke-width="1" stroke-opacity="1" points="531.400000,48.000000 531.400000,524.000000"/>
	<polyline fill="none" stroke="rgb(229,229,229)" stroke-width="1" stroke-opacity="1" points="564.500000,48.000000 564.500000,524.000000"/>
	<polyline fill="none" stroke="rgb(229,229,229)" stroke-width="1" stroke-opacity="1" points="597.600000,48.000000 597.600000,524.000000"/>
	<polyline fill="none" stroke="rgb(229,229,229)" stroke-width="1" stroke-opacity="1" points="630.700000,48.000000 630.700000,524.000000"/>
	<polyline fill="none" stroke="rgb(229,229,229)" stroke-width="1" stroke-opacity="1" points="663.800000,48.000000 663.800000,524.000000"/>
	<polyline fill="none" stroke="rgb(229,229,229)" stroke-width="1" stroke-opacity="1" points="696.900000,48.000000 696.900000,524.000000"/>
	<polyline fill="none" stroke="rgb(229,229,229)" stroke-width="1" stroke-opacity="1" points="730.000000,48.000000 730.000000,524.000000"/>
	<polyline fill="none" stroke="rgb(229,229,229)" stroke-width="1" stroke-opacity="1" points="68.000000,524.000000 730.000000,524.000000"/>
	<polyline fill="none" stroke="rgb(229,229,229)" stroke-width="1" stroke-opacity="1" points="68.000000,484.333333 730.000000,484.333333"/>
	<polyline fill="none" stroke="rgb(229,229,229)" stroke-width="1" stroke-opacity="1" points="68.000000,444.666667 730.000000,444.666667"/>
	<polyline fill="none" stroke="rgb(229,229,229)" stroke-width="1" stroke-opacity="1" points="68.000000,405.000000 730.000000,405.000000"/>
	<polyline fill="none" stroke="rgb(229,229,229)" stroke-width="1" stroke-opacity="1" points="68.000000,365.333333 730.000000,365.333333"/>
	<polyline fill="none" stroke="rgb(229,229,229)" stroke-width="1" stroke-opacity="1" points="68.000000,325.666667 730.000000,325.666667"/>
	<polyline fill="none" stroke="rgb(229,229,229)" stroke-width="1" stroke-opacity="1" points="68.000000,286.000000 730.000000,286.000000"/>
	<polyline fill="none" stroke="rgb(229,229,229)" stroke-width="1" stroke-opacity="1" points="68.000000,246.333333 730.000000,246.333333"/>
	<polyline fill="none" stroke="rgb(229,229,229)" stroke-width="1" stroke-opacity="1" points="68.000000,206.666667 730.000000,206.666667"/>
	<polyline fill="none" stroke="rgb(229,229,229)" stroke-width="1" stroke-opacity="1" points="68.000000,167.000000 730.000000,167.000000"/>
	<polyline fill="none" stroke="rgb(229,229,229)" stroke-width="1" stroke-opacity="1" points="68.000000,127.333333 730.000000,127.333333"/>
	<polyline fill="none" stroke="rgb(229,229,229)" stroke-width="1" stroke-opacity="1" points="68.000000,87.666667 730.000000,87.666667"/>
	<polyline fill="none" stroke="rgb(229,229,229)" stroke-width="1" stroke-opacity="1" points="68.000000,48.000000 730.000000,48.000000"/>
	<polyline fill="none" stroke="rgb(192,192,192)" stroke-width="1" stroke-opacity="1" points="68.000000,484.333333 730.000000,484.333333"/>
	<polyline fill="none" stroke="rgb(0,0,0)" stroke-width="1" stroke-opacity="1" points="68.000000,524.000000 730.000000,524.000000"/>
	<polyline fill="none" stroke="rgb(0,0,0)" stroke-width="1" stroke-opacity="1" points="730.000000,524.000000 730.000000,48.000000"/>
	<polyline fill="none" stroke="rgb(0,0,0)" stroke-width="1" stroke-opacity="1" points="730.000000,48.000000 68.000000,48.000000"/>
	<polyline fill="none" stroke="rgb(0,0,0)" stroke-width="1" stroke-opacity="1" points="68.000000,48.000000 68.000000,524.000000"/>
	<polyline fill="none" stroke="rgb(0,0,0)" stroke-width="1" stroke-opacity="1" points="68.000000,524.000000 68.000000,528.000000"/>
	<polyline fill="none" stroke="rgb(0,0,0)" stroke-width="1" stroke-opacity="1" points="101.100000,524.000000 101.100000,528.000000"/>
	<polyline fill="none" stroke="rgb(0,0,0)" stroke-width="1" stroke-opacity="1" points="134.200000,524.000000 134.200000,528.000000"/>
	<polyline fill="none" stroke="rgb(0,0,0)" stroke-width="1" stroke-opacity="1" points="167.300000,524.000000 167.300000,528.000000"/>
	<polyline fill="none" stroke="rgb(0,0,0)" stroke-width="1" stroke-opacity="1" points="200.400000,524.000000 200.400000,528.000000"/>
	<polyline fill="none" stroke="rgb(0,0,0)" stroke-width="1" stroke-opacity="1" points="233.500000,524.000000 233.500000,528.000000"/>
	<polyline fill="none" stroke="rgb(0,0,0)" stroke-width="1" stroke-opacity="1" points="266.600000,524.000000 266.600000,528.000000"/>
	<polyline fill="none" stroke="rgb(0,0,0)" stroke-width="1" stroke-opacity="1" points="299.700000,524.000000 299.700000,528.000000"/>
	<polyline fill="none" stroke="rgb(0,0,0)" stroke-width="1" stroke-opacity="1" points="332.800000,524.000000 332.800000,528.000000"/>
	<polyline fill="none" stroke="rgb(0,0,0)" stroke-width="1" stroke-opacity="1" points="365.900000,524.000000 365.900000,528.000000"/>
	<polyline fill="none" stroke="rgb(0,0,0)" stroke-width="1" stroke-opacity="1" points="399.000000,524.000000 399.000000,528.000000"/>
	<polyline fill="none" stroke="rgb(0,0,0)" stroke-width="1" stroke-opacity="1" points="432.100000,524.000000 432.100000,528.000000"/>
	<polyline fill="none" stroke="rgb(0,0,0)" stroke-width="1" stroke-opacity="1" points="465.200000,524.000000 465.200000,528.000000"/>
	<polyline fill="none" stroke="rgb(0,0,0)" stroke-width="1" stroke-opacity="1" points="498.300000,524.000000 498.300000,528.000000"/>
	<polyline fill="none" stroke="rgb(0,0,0)" stroke-width="1" stroke-opacity="1" points="531.400000,524.000000 531.400000,528.000000"/>
	<polyline fill="none" stroke="rgb(0,0,0)" stroke-width="1" stroke-opacity="1" points="564.500000,524.000000 564.500000,528.000000"/>
	<polyline fill="none" stroke="rgb(0,0,0)" stroke-width="1" stroke-opacity="1" points="597.600000,524.000000 597.600000,528.000000"/>
	<polyline fill="none" stroke="rgb(0,0,0)" stroke-width="1" stroke-opacity="1" points="630.700000,524.000000 630.700000,528.000000"/>
	<polyline fill="none" stroke="rgb(0,0,0)" stroke-width="1" stroke-opacity="1" points="663.800000,524.000000 663.800000,528.000000"/>
	<polyline fill="none" stroke="rgb(0,0,0)" stroke-width="1" stroke-opacity="1" points="696.900000,524.000000 696.900000,528.000000"/>
	<polyline fill="none" stroke="rgb(0,0,0)" stroke-width="1" stroke-opacity="1" points="730.000000,524.000000 730.000000,528.000000"/>
	<polyline fill="none" stroke="rgb(0,0,0)" stroke-width="1" stroke-opacity="1" points="68.000000,524.000000 68.000000,530.400000"/>
	<text x="68" y="539" fill="rgb(0,0,0)" dominant-baseline="central" font-size="11" font-family="Arial" text-anchor="middle">0</text>
	<polyline fill="none" stroke="rgb(0,0,0)" stroke-width="1" stroke-opacity="1" points="233.500000,524.000000 233.500000,530.400000"/>
	<text x="233.5" y="539" fill="rgb(0,0,0)" dominant-baseline="central" font-size="11" font-family="Arial" text-anchor="middle">25</text>
	<polyline fill="none" stroke="rgb(0,0,0)" stroke-width="1" stroke-opacity="1" points="399.000000,524.000000 399.000000,530.400000"/>
	<text x="399" y="539" fill="rgb(0,0,0)" dominant-baseline="central" font-size="11" font-family="Arial" text-anchor="middle">50</text>
	<polyline fill="none" stroke="rgb(0,0,0)" stroke-width="1" stroke-opacity="1" points="564.500000,524.000000 564.500000,530.400000"/>
	<text x="564.5" y="539" fill="rgb(0,0,0)" dominant-baseline="central" font-size="11" font-family="Arial" text-anchor="middle">75</text>
	<polyline fill="none" stroke="rgb(0,0,0)" stroke-width="1" stroke-opacity="1" points="730.000000,524.000000 730.000000,530.400000"/>
	<text x="730" y="539" fill="rgb(0,0,0)" dominant-baseline="central" font-size="11" font-family="Arial" text-anchor="middle">100</text>
	<polyline fill="none" stroke="rgb(0,0,0)" stroke-width="1" stroke-opacity="1" points="64.000000,524.000000 68.000000,524.000000"/>
	<polyline fill="none" stroke="rgb(0,0,0)" stroke-width="1" stroke-opacity="1" points="64.000000,484.333333 68.000000,484.333333"/>
	<polyline fill="none" stroke="rgb(0,0,0)" stroke-width="1" stroke-opacity="1" points="64.000000,444.666667 68.000000,444.666667"/>
	<polyline fill="none" stroke="rgb(0,0,0)" stroke-width="1" stroke-opacity="1" points="64.000000,405.000000 68.000000,405.000000"/>
	<polyline fill="none" stroke="rgb(0,0,0)" stroke-width="1" stroke-opacity="1" points="64.000000,365.333333 68.000000,365.333333"/>
	<polyline fill="none" stroke="rgb(0,0,0)" stroke-width="1" stroke-opacity="1" points="64.000000,325.666667 68.000000,325.666667"/>
	<polyline fill="none" stroke="rgb(0,0,0)" stroke-width="1" stroke-opacity="1" points="64.000000,286.000000 68.000000,286.000000"/>
	<polyline fill="none" stroke="rgb(0,0,0)" stroke-width="1" stroke-opacity="1" points="64.000000,246.333333 68.000000,246.333333"/>
	<polyline fill="none" stroke="rgb(0,0,0)" stroke-width="1" stroke-opacity="1" points="64.000000,206.666667 68.000000,206.666667"/>
	<polyline fill="none" stroke="rgb(0,0,0)" stroke-width="1" stroke-opacity="1" points="64.000000,167.000000 68.000000,167.000000"/>
	<polyline fill="none" stroke="rgb(0,0,0)" stroke-width="1" stroke-opacity="1" points="64.000000,127.333333 68.000000,127.333333"/>
	<polyline fill="none" stroke="rgb(0,0,0)" stroke-width="1" stroke-opacity="1" points="64.000000,87.666667 68.000000,87.666667"/>
	<polyline fill="none" stroke="rgb(0,0,0)" stroke-width="1" stroke-opacity="1" points="64.000000,48.000000 68.000000,48.000000"/>
	<rect fill="none" stroke="none" stroke-dasharray="none" stroke-width="1" stroke-opacity="1" x="9" y="477.333" width="51" height="14"/>
	<polyline fill="none" stroke="rgb(0,0,0)" stroke-width="1" stroke-opacity="1" points="61.600000,484.333333 68.000000,484.333333"/>
	<text x="60" y="484.333" fill="rgb(0,0,0)" dominant-baseline="central" font-size="11" font-family="Arial" text-anchor="end">0E0</text>
	<polyline fill="none" stroke="rgb(0,0,0)" stroke-width="1" stroke-opacity="1" points="61.600000,405.000000 68.000000,405.000000"/>
	<text x="60" y="405" fill="rgb(0,0,0)" dominant-baseline="central" font-size="11" font-family="Arial" text-anchor="end">1E4</text>
	<polyline fill="none" stroke="rgb(0,0,0)" stroke-width="1" stroke-opacity="1" points="61.600000,325.666667 68.000000,325.666667"/>
	<text x="60" y="325.667" fill="rgb(0,0,0)" dominant-baseline="central" font-size="11" font-family="Arial" text-anchor="end">2E4</text>
	<polyline fill="none" stroke="rgb(0,0,0)" stroke-width="1" stroke-opacity="1" points="61.600000,246.333333 68.000000,246.333333"/>
	<text x="60" y="246.333" fill="rgb(0,0,0)" dominant-baseline="central" font-size="11" font-family="Arial" text-anchor="end">3E4</text>
	<polyline fill="none" stroke="rgb(0,0,0)" stroke-width="1" stroke-opacity="1" points="61.600000,167.000000 68.000000,167.000000"/>
	<text x="60" y="167" fill="rgb(0,0,0)" dominant-baseline="central" font-size="11" font-family="Arial" text-anchor="end">4E4</text>
	<polyline fill="none" stroke="rgb(0,0,0)" stroke-width="1" stroke-opacity="1" points="61.600000,87.666667 68.000000,87.666667"/>
	<text x="60" y="87.6667" fill="rgb(0,0,0)" dominant-baseline="central" font-size="11" font-family="Arial" text-anchor="end">5E4</text>
	<text x="25" y="286" fill="rgb(0,0,0)" dominant-baseline="central" transform="rotate(-90 25,286)" font-size="11" font-family="Arial" text-anchor="middle">[1]</text>
	<text x="729" y="286" fill="rgb(0,0,0)" dominant-baseline="central" transform="rotate(-90 729,286)" font-size="11" font-family="Arial" text-anchor="middle">人口数量</text>
	<text x="399" y="558" fill="rgb(0,0,0)" dominant-baseline="central" font-size="11" font-family="Arial" text-anchor="middle">时间</text>
	<text x="399" y="12" fill="rgb(0,0,0)" dominant-baseline="central" font-size="11" font-family="Arial" text-anchor="middle">SIR 模型</text>
	<clipPath id="clipArea1">
		<rect x="68" y="48" width="662" height="476">
		</rect>
	</clipPath>
	<text x="399" y="286" fill="rgb(211,211,211)" dominant-baseline="central" font-size="11" font-family="Arial" text-anchor="middle">Dymola trial version, see www.dymola.com</text>
	<polyline fill="none" stroke="rgb(28,108,200)" stroke-width="1" stroke-opacity="1" clip-path="url(#clipArea1)" points="68.000000,87.706333 69.324000,87.712190 70.648000,87.718636 71.972000,87.725764 73.296000,87.733666 74.620000,87.742374 75.944000,87.751981 77.268000,87.762641 78.592000,87.774386 79.916000,87.787371 81.240000,87.801750 82.564000,87.817617 83.888001,87.835157 85.211999,87.854526 86.536000,87.875939 87.860000,87.899615 89.184000,87.925771 90.508001,87.954653 91.831999,87.986603 93.156000,88.021869 94.480000,88.060854 95.803999,88.103930 97.128001,88.151499 98.451999,88.204088 99.776001,88.262162 101.100000,88.326342 102.423999,88.397246 103.748001,88.475557 105.071999,88.562049 106.396001,88.657621 107.720000,88.763140 109.043999,88.879692 110.368001,89.008423 111.691999,89.150572 113.016001,89.307534 114.340000,89.480797 115.663999,89.672096 116.988001,89.883259 118.311999,90.116331 119.636001,90.373514 120.960000,90.657254 122.283999,90.970311 123.607997,91.315566 124.932003,91.696304 126.256001,92.116058 127.580000,92.578702 128.903999,93.088480 130.227997,93.650042 131.552003,94.268409 132.876001,94.949064 134.200000,95.697989 135.523999,96.521692 136.847997,97.427146 138.172003,98.421942 139.496001,99.514201 140.820000,100.712723 142.143999,102.026930 143.467997,103.466768 144.792003,105.042898 146.116001,106.766632 147.440000,108.649807 148.763999,110.704881 150.087997,112.944715 151.412003,115.382758 152.736001,118.032554 154.060000,120.908077 155.383999,124.023026 156.707997,127.391315 158.032003,131.026021 159.356001,134.940005 160.680000,139.144703 162.003999,143.650774 163.327997,148.466835 164.652003,153.599701 165.976001,159.053806 167.300000,164.830791 168.623999,170.929262 169.947997,177.344354 171.272003,184.067513 172.596001,191.086499 173.920000,198.384762 175.244005,205.942378 176.567997,213.734678 177.892003,221.734670 179.215995,229.910652 180.540000,238.230549 181.864005,246.658430 183.187997,255.156889 184.512003,263.686865 185.835995,272.210224 187.160000,280.689486 188.484005,289.087694 189.807997,297.370249 191.132003,305.505092 192.455995,313.463527 193.780000,321.220312 195.104005,328.752036 196.427997,336.040740 197.752003,343.071904 199.075995,349.835613 200.400000,356.322570 201.724005,362.528885 203.047997,368.452202 204.372003,374.093089 205.695995,379.454039 207.020000,384.539306 208.344005,389.355017 209.667997,393.908766 210.992003,398.209284 212.315995,402.266626 213.640000,406.091414 214.964005,409.694465 216.287997,413.087003 217.612003,416.279426 218.935995,419.281859 220.260000,422.104774 221.584005,424.757207 222.907997,427.249440 224.232003,429.590936 225.555995,431.790921 226.880000,433.858511 228.204005,435.802232 229.527997,437.630040 230.852003,439.349532 232.175995,440.967208 233.500000,442.489532 234.824005,443.922328 236.147997,445.271006 237.472003,446.541711 238.795995,447.739439 240.120000,448.868676 241.444005,449.933873 242.767997,450.939067 244.092003,451.887921 245.415995,452.784208 246.740000,453.631397 248.064005,454.432493 249.387997,455.190154 250.712003,455.907057 252.035995,456.586111 253.360000,457.229695 254.684005,457.839676 256.007997,458.418122 257.332003,458.966911 258.655995,459.487673 259.980000,459.982164 261.304005,460.451833 262.627997,460.898224 263.952003,461.322712 265.275995,461.726581 266.600000,462.111044 267.924005,462.477201 269.247997,462.826061 270.572003,463.158542 271.895995,463.475469 273.220000,463.777710 274.544005,464.066247 275.867997,464.341663 277.192003,464.604601 278.515995,464.855671 279.840000,465.095639 281.164005,465.324927 282.488010,465.544006 283.811990,465.753391 285.135995,465.953778 286.460000,466.145464 287.784005,466.328844 289.108010,466.504362 290.431990,466.672474 291.755995,466.833483 293.080000,466.987710 294.404005,467.135515 295.728010,467.277211 297.051990,467.413058 298.375995,467.543315 299.700000,467.668278 301.024005,467.788179 302.348010,467.903226 303.671990,468.013618 304.995995,468.119630 306.320000,468.221412 307.644005,468.319144 308.968010,468.412991 310.291990,468.503148 311.615995,468.589756 312.940000,468.672962 314.264005,468.752910 315.588010,468.829733 316.911990,468.903562 318.235995,468.974521 319.560000,469.042734 320.884005,469.108319 322.208010,469.171391 323.531990,469.232065 324.855995,469.290453 326.180000,469.346670 327.504005,469.400808 328.828010,469.452835 330.151990,469.502916 331.475995,469.551132 332.800000,469.597564 334.124005,469.642289 335.448010,469.685381 336.771990,469.726877 338.095995,469.766841 339.420000,469.805344 340.744005,469.842442 342.068010,469.878191 343.391990,469.912641 344.715995,469.945832 346.040000,469.977816 347.364005,470.008635 348.688010,470.038332 350.011990,470.066946 351.335995,470.094518 352.660000,470.121091 353.984005,470.146700 355.308010,470.171381 356.631990,470.195169 357.955995,470.218099 359.280000,470.240202 360.604005,470.261501 361.928010,470.282034 363.251990,470.301830 364.575995,470.320922 365.900000,470.339337 367.224005,470.357093 368.548010,470.374210 369.871990,470.390719 371.195995,470.406643 372.520000,470.422005 373.844005,470.436826 375.168010,470.451119 376.491990,470.464909 377.815995,470.478211 379.140000,470.491043 380.464005,470.503421 381.788010,470.515361 383.111990,470.526882 384.435995,470.537996 385.760000,470.548718 387.084005,470.559061 388.408010,470.569038 389.731990,470.578662 391.055995,470.587947 392.380000,470.596904 393.704005,470.605546 395.028010,470.613884 396.351990,470.621928 397.675995,470.629690 399.000000,470.637178 400.324005,470.644402 401.648010,470.651373 402.971990,470.658102 404.295995,470.664595 405.620000,470.670862 406.944005,470.676908 408.268010,470.682742 409.591990,470.688374 410.915995,470.693809 412.240000,470.699055 413.564005,470.704117 414.888010,470.709004 416.211990,470.713720 417.535995,470.718272 418.860000,470.722665 420.184005,470.726904 421.508010,470.730995 422.831990,470.734944 424.155995,470.738755 425.480000,470.742433 426.804005,470.745983 428.128010,470.749409 429.451990,470.752715 430.775995,470.755906 432.100000,470.758986 433.424005,470.761958 434.748010,470.764827 436.071990,470.767596 437.395995,470.770269 438.720000,470.772848 440.044005,470.775337 441.368010,470.777741 442.691990,470.780061 444.015995,470.782300 445.340000,470.784462 446.664005,470.786548 447.988010,470.788562 449.311990,470.790507 450.635995,470.792384 451.960000,470.794195 453.284005,470.795943 454.608010,470.797632 455.931990,470.799261 457.255995,470.800834 458.580000,470.802353 459.904005,470.803818 461.228010,470.805233 462.551990,470.806598 463.875995,470.807916 465.200000,470.809189 466.524005,470.810417 467.848010,470.811602 469.171990,470.812746 470.495995,470.813851 471.820000,470.814917 473.144005,470.815946 474.468010,470.816940 475.791990,470.817899 477.115995,470.818824 478.440000,470.819717 479.764005,470.820580 481.088010,470.821413 482.411990,470.822218 483.735995,470.822994 485.060000,470.823743 486.384005,470.824466 487.708010,470.825164 489.031990,470.825838 490.355995,470.826489 491.680000,470.827117 493.003980,470.827723 494.328010,470.828308 495.651990,470.828874 496.976020,470.829419 498.300000,470.829946 499.623980,470.830454 500.948010,470.830944 502.271990,470.831418 503.596020,470.831875 504.920000,470.832317 506.243980,470.832743 507.568010,470.833154 508.891990,470.833551 510.216020,470.833935 511.540000,470.834305 512.863980,470.834662 514.188010,470.835007 515.511990,470.835339 516.836020,470.835661 518.160000,470.835970 519.483980,470.836271 520.808010,470.836559 522.131990,470.836838 523.456020,470.837108 524.780000,470.837368 526.103980,470.837620 527.428010,470.837862 528.751990,470.838095 530.076020,470.838322 531.400000,470.838540 532.723980,470.838750 534.048010,470.838953 535.371990,470.839150 536.696020,470.839339 538.020000,470.839522 539.343980,470.839698 540.668010,470.839868 541.991990,470.840033 543.316020,470.840192 544.640000,470.840345 545.963980,470.840493 547.288010,470.840636 548.611990,470.840774 549.936020,470.840906 551.260000,470.841035 552.583980,470.841159 553.908010,470.841279 555.231990,470.841395 556.556020,470.841507 557.880000,470.841614 559.203980,470.841718 560.528010,470.841819 561.851990,470.841916 563.176020,470.842010 564.500000,470.842100 565.823980,470.842187 567.148010,470.842271 568.471990,470.842352 569.796020,470.842431 571.120000,470.842506 572.443980,470.842580 573.768010,470.842651 575.091990,470.842718 576.416020,470.842784 577.740000,470.842847 579.063980,470.842909 580.388010,470.842968 581.711990,470.843025 583.036020,470.843081 584.360000,470.843134 585.683980,470.843185 587.008010,470.843235 588.331990,470.843283 589.656020,470.843329 590.980000,470.843373 592.303980,470.843417 593.628010,470.843458 594.951990,470.843498 596.276020,470.843537 597.600000,470.843574 598.923980,470.843610 600.248010,470.843645 601.571990,470.843679 602.896020,470.843712 604.220000,470.843743 605.543980,470.843774 606.868010,470.843803 608.191990,470.843831 609.516020,470.843858 610.840000,470.843884 612.163980,470.843910 613.488010,470.843935 614.811990,470.843958 616.136020,470.843981 617.460000,470.844003 618.783980,470.844025 620.108010,470.844045 621.431990,470.844065 622.756020,470.844084 624.080000,470.844102 625.403980,470.844121 626.728010,470.844137 628.051990,470.844155 629.376020,470.844170 630.700000,470.844186 632.023980,470.844201 633.348010,470.844216 634.671990,470.844229 635.996020,470.844243 637.320000,470.844255 638.643980,470.844268 639.968010,470.844280 641.291990,470.844292 642.616020,470.844304 643.940000,470.844314 645.263980,470.844325 646.588010,470.844335 647.911990,470.844344 649.236020,470.844354 650.560000,470.844364 651.883980,470.844372 653.208010,470.844381 654.531990,470.844389 655.856020,470.844397 657.180000,470.844404 658.503980,470.844412 659.828010,470.844419 661.151990,470.844426 662.476020,470.844433 663.800000,470.844439 665.123980,470.844445 666.448010,470.844451 667.771990,470.844457 669.096020,470.844463 670.420000,470.844468 671.743980,470.844473 673.068010,470.844478 674.391990,470.844483 675.716020,470.844488 677.040000,470.844493 678.363980,470.844496 679.688010,470.844501 681.011990,470.844505 682.336020,470.844509 683.660000,470.844513 684.983980,470.844517 686.308010,470.844520 687.631990,470.844524 688.956020,470.844526 690.280000,470.844529 691.603980,470.844533 692.928010,470.844536 694.251990,470.844539 695.576020,470.844541 696.900000,470.844544 698.223980,470.844547 699.548010,470.844549 700.871990,470.844552 702.196020,470.844554 703.520000,470.844556 704.843980,470.844558 706.168010,470.844560 707.491990,470.844562 708.816020,470.844564 710.140000,470.844566 711.463980,470.844568 712.788010,470.844570 714.111990,470.844571 715.436020,470.844573 716.760000,470.844575 718.083980,470.844576 719.408010,470.844578 720.731990,470.844579 722.056020,470.844581 723.380000,470.844582 724.703980,470.844583 726.028010,470.844585 727.351990,470.844586 728.676020,470.844586 730.000000,470.844587 730.000000,470.844587"/>
	<polyline fill="none" stroke="rgb(238,46,47)" stroke-width="1" stroke-opacity="1" clip-path="url(#clipArea1)" points="68.000000,484.293667 69.324000,484.289494 70.648000,484.284882 71.972000,484.279786 73.296000,484.274155 74.620000,484.267932 75.944000,484.261056 77.268000,484.253456 78.592000,484.245058 79.916000,484.235776 81.240000,484.225520 82.564000,484.214186 83.888001,484.201661 85.211999,484.187820 86.536000,484.172526 87.860000,484.155626 89.184000,484.136951 90.508001,484.116317 91.831999,484.093518 93.156000,484.068327 94.480000,484.040494 95.803999,484.009743 97.128001,483.975768 98.451999,483.938233 99.776001,483.896766 101.100000,483.850957 102.423999,483.800356 103.748001,483.744461 105.071999,483.682724 106.396001,483.614538 107.720000,483.539234 109.043999,483.456075 110.368001,483.364249 111.691999,483.262863 113.016001,483.150931 114.340000,483.027373 115.663999,482.890995 116.988001,482.740490 118.311999,482.574416 119.636001,482.391197 120.960000,482.189094 122.283999,481.966212 123.607997,481.720465 124.932003,481.449574 126.256001,481.151049 127.580000,480.822166 128.903999,480.459960 130.227997,480.061195 131.552003,479.622360 132.876001,479.139636 134.200000,478.608893 135.523999,478.025663 136.847997,477.385129 138.172003,476.682119 139.496001,475.911073 140.820000,475.066081 142.143999,474.140819 143.467997,473.128631 144.792003,472.022469 146.116001,470.814975 147.440000,469.498487 148.763999,468.065084 150.087997,466.506709 151.412003,464.815125 152.736001,462.982237 154.060000,460.999912 155.383999,458.860541 156.707997,456.556700 158.032003,454.081974 159.356001,451.430492 160.680000,448.597928 162.003999,445.581014 163.327997,442.378489 164.652003,438.990948 165.976001,435.421316 167.300000,431.675155 168.623999,427.760753 169.947997,423.689465 171.272003,419.475858 172.596001,415.137498 173.920000,410.695568 175.244005,406.173607 176.567997,401.598963 177.892003,397.000186 179.215995,392.409304 180.540000,387.857577 181.864005,383.378692 183.187997,379.006480 184.512003,374.774899 185.835995,370.715914 187.160000,366.859516 188.484005,363.233867 189.807997,359.863866 191.132003,356.770733 192.455995,353.971932 193.780000,351.480494 195.104005,349.307411 196.427997,347.457751 197.752003,345.933141 199.075995,344.730560 200.400000,343.846427 201.724005,343.272143 203.047997,342.997793 204.372003,343.011072 205.695995,343.298237 207.020000,343.844335 208.344005,344.633206 209.667997,345.647836 210.992003,346.870840 212.315995,348.284197 213.640000,349.870105 214.964005,351.611130 216.287997,353.490323 217.612003,355.491964 218.935995,357.601394 220.260000,359.804040 221.584005,362.087353 222.907997,364.438129 224.232003,366.844432 225.555995,369.295011 226.880000,371.779260 228.204005,374.287495 229.527997,376.810976 230.852003,379.341717 232.175995,381.872978 233.500000,384.398497 234.824005,386.912659 236.147997,389.410721 237.472003,391.887223 238.795995,394.338197 240.120000,396.760141 241.444005,399.149934 242.767997,401.504801 244.092003,403.822551 245.415995,406.100944 246.740000,408.338113 248.064005,410.532764 249.387997,412.683914 250.712003,414.790671 252.035995,416.851951 253.360000,418.867188 254.684005,420.836328 256.007997,422.759162 257.332003,424.635639 258.655995,426.466008 259.980000,428.250334 261.304005,429.989028 262.627997,431.682353 263.952003,433.330758 265.275995,434.934737 266.600000,436.494857 267.924005,438.011739 269.247997,439.486076 270.572003,440.918635 271.895995,442.310242 273.220000,443.661663 274.544005,444.973510 275.867997,446.246783 277.192003,447.482376 278.515995,448.681204 279.840000,449.843860 281.164005,450.971412 282.488010,452.064791 283.811990,453.124834 285.135995,454.152121 286.460000,455.147667 287.784005,456.112326 289.108010,457.046877 290.431990,457.952052 291.755995,458.828697 293.080000,459.677601 294.404005,460.499520 295.728010,461.295206 297.051990,462.065420 298.375995,462.810899 299.700000,463.532344 301.024005,464.230466 302.348010,464.905965 303.671990,465.559530 304.995995,466.191779 306.320000,466.803380 307.644005,467.394967 308.968010,467.967155 310.291990,468.520538 311.615995,469.055704 312.940000,469.573222 314.264005,470.073647 315.588010,470.557514 316.911990,471.025344 318.235995,471.477643 319.560000,471.914901 320.884005,472.337593 322.208010,472.746172 323.531990,473.141079 324.855995,473.522735 326.180000,473.891546 327.504005,474.247921 328.828010,474.592390 330.151990,474.925253 331.475995,475.246886 332.800000,475.557655 334.124005,475.857911 335.448010,476.147997 336.771990,476.428261 338.095995,476.699026 339.420000,476.960608 340.744005,477.213313 342.068010,477.457442 343.391990,477.693287 344.715995,477.921098 346.040000,478.141159 347.364005,478.353737 348.688010,478.559083 350.011990,478.757447 351.335995,478.949062 352.660000,479.134134 353.984005,479.312897 355.308010,479.485562 356.631990,479.652331 357.955995,479.813403 359.280000,479.968969 360.604005,480.119221 361.928010,480.264332 363.251990,480.404473 364.575995,480.539811 365.900000,480.670506 367.224005,480.796719 368.548010,480.918603 369.871990,481.036304 371.195995,481.149963 372.520000,481.259720 373.844005,481.365708 375.168010,481.468049 376.491990,481.566870 377.815995,481.662293 379.140000,481.754438 380.464005,481.843418 381.788010,481.929345 383.111990,482.012306 384.435995,482.092413 385.760000,482.169764 387.084005,482.244456 388.408010,482.316581 389.731990,482.386225 391.055995,482.453468 392.380000,482.518395 393.704005,482.581087 395.028010,482.641620 396.351990,482.700066 397.675995,482.756498 399.000000,482.810985 400.324005,482.863593 401.648010,482.914386 402.971990,482.963426 404.295995,483.010775 405.620000,483.056488 406.944005,483.100623 408.268010,483.143234 409.591990,483.184374 410.915995,483.224095 412.240000,483.262446 413.564005,483.299469 414.888010,483.335213 416.211990,483.369723 417.535995,483.403042 418.860000,483.435211 420.184005,483.466272 421.508010,483.496256 422.831990,483.525205 424.155995,483.553154 425.480000,483.580138 426.804005,483.606191 428.128010,483.631345 429.451990,483.655628 430.775995,483.679072 432.100000,483.701706 433.424005,483.723558 434.748010,483.744655 436.071990,483.765023 437.395995,483.784685 438.720000,483.803668 440.044005,483.821995 441.368010,483.839688 442.691990,483.856769 444.015995,483.873259 445.340000,483.889179 446.664005,483.904547 447.988010,483.919384 449.311990,483.933709 450.635995,483.947538 451.960000,483.960888 453.284005,483.973776 454.608010,483.986219 455.931990,483.998231 457.255995,484.009828 458.580000,484.021025 459.904005,484.031833 461.228010,484.042267 462.551990,484.052341 463.875995,484.062066 465.200000,484.071456 466.524005,484.080520 467.848010,484.089270 469.171990,484.097718 470.495995,484.105873 471.820000,484.113747 473.144005,484.121348 474.468010,484.128686 475.791990,484.135769 477.115995,484.142608 478.440000,484.149210 479.764005,484.155583 481.088010,484.161736 482.411990,484.167676 483.735995,484.173410 485.060000,484.178946 486.384005,484.184290 487.708010,484.189450 489.031990,484.194431 490.355995,484.199239 491.680000,484.203880 493.003980,484.208362 494.328010,484.212688 495.651990,484.216864 496.976020,484.220896 498.300000,484.224789 499.623980,484.228546 500.948010,484.232174 502.271990,484.235676 503.596020,484.239057 504.920000,484.242321 506.243980,484.245471 507.568010,484.248513 508.891990,484.251450 510.216020,484.254284 511.540000,484.257021 512.863980,484.259663 514.188010,484.262214 515.511990,484.264676 516.836020,484.267053 518.160000,484.269347 519.483980,484.271563 520.808010,484.273701 522.131990,484.275765 523.456020,484.277758 524.780000,484.279682 526.103980,484.281540 527.428010,484.283333 528.751990,484.285064 530.076020,484.286735 531.400000,484.288348 532.723980,484.289906 534.048010,484.291409 535.371990,484.292861 536.696020,484.294262 538.020000,484.295615 539.343980,484.296921 540.668010,484.298181 541.991990,484.299398 543.316020,484.300573 544.640000,484.301707 545.963980,484.302802 547.288010,484.303859 548.611990,484.304880 549.936020,484.305865 551.260000,484.306816 552.583980,484.307734 553.908010,484.308620 555.231990,484.309476 556.556020,484.310302 557.880000,484.311099 559.203980,484.311869 560.528010,484.312612 561.851990,484.313330 563.176020,484.314022 564.500000,484.314691 565.823980,484.315336 567.148010,484.315959 568.471990,484.316561 569.796020,484.317142 571.120000,484.317702 572.443980,484.318243 573.768010,484.318766 575.091990,484.319270 576.416020,484.319757 577.740000,484.320227 579.063980,484.320681 580.388010,484.321119 581.711990,484.321542 583.036020,484.321950 584.360000,484.322344 585.683980,484.322725 587.008010,484.323092 588.331990,484.323447 589.656020,484.323789 590.980000,484.324119 592.303980,484.324438 593.628010,484.324746 594.951990,484.325044 596.276020,484.325331 597.600000,484.325608 598.923980,484.325875 600.248010,484.326133 601.571990,484.326383 602.896020,484.326623 604.220000,484.326856 605.543980,484.327080 606.868010,484.327296 608.191990,484.327505 609.516020,484.327707 610.840000,484.327902 612.163980,484.328090 613.488010,484.328272 614.811990,484.328447 616.136020,484.328616 617.460000,484.328779 618.783980,484.328937 620.108010,484.329089 621.431990,484.329236 622.756020,484.329378 624.080000,484.329515 625.403980,484.329647 626.728010,484.329775 628.051990,484.329898 629.376020,484.330017 630.700000,484.330132 632.023980,484.330243 633.348010,484.330350 634.671990,484.330453 635.996020,484.330553 637.320000,484.330649 638.643980,484.330742 639.968010,484.330832 641.291990,484.330918 642.616020,484.331002 643.940000,484.331083 645.263980,484.331161 646.588010,484.331236 647.911990,484.331308 649.236020,484.331378 650.560000,484.331446 651.883980,484.331512 653.208010,484.331575 654.531990,484.331635 655.856020,484.331694 657.180000,484.331751 658.503980,484.331806 659.828010,484.331859 661.151990,484.331910 662.476020,484.331959 663.800000,484.332007 665.123980,484.332053 666.448010,484.332097 667.771990,484.332140 669.096020,484.332181 670.420000,484.332221 671.743980,484.332259 673.068010,484.332297 674.391990,484.332333 675.716020,484.332367 677.040000,484.332401 678.363980,484.332433 679.688010,484.332464 681.011990,484.332494 682.336020,484.332523 683.660000,484.332551 684.983980,484.332578 686.308010,484.332605 687.631990,484.332630 688.956020,484.332654 690.280000,484.332678 691.603980,484.332700 692.928010,484.332722 694.251990,484.332743 695.576020,484.332764 696.900000,484.332784 698.223980,484.332803 699.548010,484.332821 700.871990,484.332839 702.196020,484.332856 703.520000,484.332872 704.843980,484.332888 706.168010,484.332904 707.491990,484.332919 708.816020,484.332933 710.140000,484.332947 711.463980,484.332960 712.788010,484.332973 714.111990,484.332986 715.436020,484.332998 716.760000,484.333009 718.083980,484.333020 719.408010,484.333031 720.731990,484.333042 722.056020,484.333052 723.380000,484.333061 724.703980,484.333071 726.028010,484.333080 727.351990,484.333089 728.676020,484.333097 730.000000,484.333105 730.000000,484.333105"/>
	<rect fill="rgb(255,255,255)" stroke="none" stroke-opacity="0.7" x="68" y="23" width="190" height="17"/>
	<polyline fill="none" stroke="rgb(28,108,200)" stroke-width="1" stroke-opacity="1" points="68.000000,32.000000 98.000000,32.000000"/>
	<text x="103" y="32" fill="rgb(0,0,0)" dominant-baseline="central" font-size="11" font-family="Arial" text-anchor="start">S-易感人群</text>
	<polyline fill="none" stroke="rgb(238,46,47)" stroke-width="1" stroke-opacity="1" points="168.000000,32.000000 198.000000,32.000000"/>
	<text x="203" y="32" fill="rgb(0,0,0)" dominant-baseline="central" font-size="11" font-family="Arial" text-anchor="start">I-感染人群</text>
</svg>
